<svg width="1926" height="1284" viewBox="0 0 1926 1284" fill="none" xmlns="http://www.w3.org/2000/svg">
<g clip-path="url(#clip0_102_553)">
<path d="M-0.00012207 1284L1926 1284L1926 -0.00012207L-0.00012207 -0.00012207L-0.00012207 1284Z" fill="#3D3D3D"/>
<path d="M1926 614.18L1912.09 589.998C1898.18 565.602 1870.36 517.238 1842.54 504.612C1814.72 492.2 1786.9 515.74 1759.08 525.798C1731.26 535.642 1703.44 532.218 1675.19 540.992C1647.16 549.98 1618.48 571.38 1590.45 559.182C1562.2 547.198 1534.38 501.402 1506.56 471.442C1478.74 441.482 1450.92 427.358 1423.1 437.202C1395.28 447.26 1367.46 481.5 1339.64 509.32C1311.82 537.14 1284 558.54 1256.18 536.712C1228.36 515.098 1200.54 450.042 1172.72 434.848C1144.9 419.44 1117.08 453.68 1089.26 473.582C1061.44 493.698 1033.62 499.262 1005.37 505.04C977.338 510.818 948.662 516.382 920.628 520.448C892.38 524.3 864.56 526.44 836.74 521.732C808.92 517.238 781.1 505.682 753.28 524.3C725.46 542.918 697.64 591.282 669.82 592.352C642 593.422 614.18 547.198 586.36 515.74C558.54 484.282 530.72 468.018 502.9 448.33C475.08 428.642 447.26 405.958 419.44 410.88C391.62 415.802 363.8 448.758 335.552 481.5C307.518 514.242 278.842 547.198 250.808 550.622C222.56 554.26 194.74 528.58 166.92 501.402C139.1 474.438 111.28 445.762 83.4599 466.092C55.6399 486.422 27.8199 555.758 13.9099 590.212L-9.44138e-05 624.88V-2.14015H13.9099C27.8199 -2.14015 55.6399 -2.14015 83.4599 -2.14015C111.28 -2.14015 139.1 -2.14015 166.92 -2.14015C194.74 -2.14015 222.56 -2.14015 250.808 -2.14015C278.842 -2.14015 307.518 -2.14015 335.552 -2.14015C363.8 -2.14015 391.62 -2.14015 419.44 -2.14015C447.26 -2.14015 475.08 -2.14015 502.9 -2.14015C530.72 -2.14015 558.54 -2.14015 586.36 -2.14015C614.18 -2.14015 642 -2.14015 669.82 -2.14015C697.64 -2.14015 725.46 -2.14015 753.28 -2.14015C781.1 -2.14015 808.92 -2.14015 836.74 -2.14015C864.56 -2.14015 892.38 -2.14015 920.628 -2.14015C948.662 -2.14015 977.338 -2.14015 1005.37 -2.14015C1033.62 -2.14015 1061.44 -2.14015 1089.26 -2.14015C1117.08 -2.14015 1144.9 -2.14015 1172.72 -2.14015C1200.54 -2.14015 1228.36 -2.14015 1256.18 -2.14015C1284 -2.14015 1311.82 -2.14015 1339.64 -2.14015C1367.46 -2.14015 1395.28 -2.14015 1423.1 -2.14015C1450.92 -2.14015 1478.74 -2.14015 1506.56 -2.14015C1534.38 -2.14015 1562.2 -2.14015 1590.45 -2.14015C1618.48 -2.14015 1647.16 -2.14015 1675.19 -2.14015C1703.44 -2.14015 1731.26 -2.14015 1759.08 -2.14015C1786.9 -2.14015 1814.72 -2.14015 1842.54 -2.14015C1870.36 -2.14015 1898.18 -2.14015 1912.09 -2.14015H1926V614.18Z" fill="#3D3D3D"/>
<path d="M1926 470.8L1912.09 483.212C1898.18 495.838 1870.36 520.662 1842.54 516.382C1814.72 512.102 1786.9 478.718 1759.08 463.738C1731.26 448.758 1703.44 452.182 1675.19 468.232C1647.16 484.282 1618.48 512.958 1590.45 496.908C1562.2 480.858 1534.38 420.082 1506.56 405.53C1478.74 390.978 1450.92 422.222 1423.1 457.532C1395.28 492.842 1367.46 532.218 1339.64 538.852C1311.82 545.7 1284 520.02 1256.18 514.67C1228.36 509.32 1200.54 524.3 1172.72 529.008C1144.9 533.502 1117.08 527.938 1089.26 528.58C1061.44 529.222 1033.62 536.498 1005.37 518.522C977.338 500.76 948.662 457.96 920.628 437.63C892.38 417.3 864.56 419.44 836.74 415.588C808.92 411.522 781.1 401.678 753.28 390.978C725.46 380.278 697.64 368.722 669.82 363.158C642 357.38 614.18 357.38 586.36 385.842C558.54 414.518 530.72 471.442 502.9 483.212C475.08 494.982 447.26 461.598 419.44 461.812C391.62 462.24 363.8 496.48 335.552 502.472C307.518 508.678 278.842 486.422 250.808 489.632C222.56 492.842 194.74 521.518 166.92 528.58C139.1 535.642 111.28 521.518 83.4599 502.472C55.6399 483.64 27.8199 460.1 13.9099 448.33L-9.44138e-05 436.56V-2.14006H13.9099C27.8199 -2.14006 55.6399 -2.14006 83.4599 -2.14006C111.28 -2.14006 139.1 -2.14006 166.92 -2.14006C194.74 -2.14006 222.56 -2.14006 250.808 -2.14006C278.842 -2.14006 307.518 -2.14006 335.552 -2.14006C363.8 -2.14006 391.62 -2.14006 419.44 -2.14006C447.26 -2.14006 475.08 -2.14006 502.9 -2.14006C530.72 -2.14006 558.54 -2.14006 586.36 -2.14006C614.18 -2.14006 642 -2.14006 669.82 -2.14006C697.64 -2.14006 725.46 -2.14006 753.28 -2.14006C781.1 -2.14006 808.92 -2.14006 836.74 -2.14006C864.56 -2.14006 892.38 -2.14006 920.628 -2.14006C948.662 -2.14006 977.338 -2.14006 1005.37 -2.14006C1033.62 -2.14006 1061.44 -2.14006 1089.26 -2.14006C1117.08 -2.14006 1144.9 -2.14006 1172.72 -2.14006C1200.54 -2.14006 1228.36 -2.14006 1256.18 -2.14006C1284 -2.14006 1311.82 -2.14006 1339.64 -2.14006C1367.46 -2.14006 1395.28 -2.14006 1423.1 -2.14006C1450.92 -2.14006 1478.74 -2.14006 1506.56 -2.14006C1534.38 -2.14006 1562.2 -2.14006 1590.45 -2.14006C1618.48 -2.14006 1647.16 -2.14006 1675.19 -2.14006C1703.44 -2.14006 1731.26 -2.14006 1759.08 -2.14006C1786.9 -2.14006 1814.72 -2.14006 1842.54 -2.14006C1870.36 -2.14006 1898.18 -2.14006 1912.09 -2.14006H1926V470.8Z" fill="#4C4C4C"/>
<path d="M1926 404.46L1912.09 411.308C1898.18 417.942 1870.36 431.638 1842.54 433.35C1814.72 435.062 1786.9 425.218 1759.08 426.93C1731.26 428.642 1703.44 442.338 1675.19 448.33C1647.16 454.322 1618.48 453.038 1590.45 440.198C1562.2 427.358 1534.38 402.962 1506.56 414.09C1478.74 425.218 1450.92 471.442 1423.1 494.768C1395.28 517.88 1367.46 517.88 1339.64 502.258C1311.82 486.422 1284 455.178 1256.18 448.33C1228.36 441.482 1200.54 459.458 1172.72 469.088C1144.9 478.718 1117.08 480.002 1089.26 459.672C1061.44 439.342 1033.62 397.398 1005.37 385.2C977.338 373.002 948.662 390.978 920.628 391.62C892.38 392.262 864.56 375.998 836.74 390.122C808.92 404.46 781.1 449.4 753.28 469.73C725.46 490.06 697.64 485.78 669.82 484.282C642 482.998 614.18 484.282 586.36 487.492C558.54 490.702 530.72 495.838 502.9 471.442C475.08 447.26 447.26 393.76 419.44 386.912C391.62 380.278 363.8 420.082 335.552 430.568C307.518 440.84 278.842 421.58 250.808 433.35C222.56 445.12 194.74 487.92 166.92 492.842C139.1 497.978 111.28 465.022 83.4599 458.602C55.6399 452.182 27.8199 472.298 13.9099 482.142L-9.44138e-05 492.2V-2.14013H13.9099C27.8199 -2.14013 55.6399 -2.14013 83.4599 -2.14013C111.28 -2.14013 139.1 -2.14013 166.92 -2.14013C194.74 -2.14013 222.56 -2.14013 250.808 -2.14013C278.842 -2.14013 307.518 -2.14013 335.552 -2.14013C363.8 -2.14013 391.62 -2.14013 419.44 -2.14013C447.26 -2.14013 475.08 -2.14013 502.9 -2.14013C530.72 -2.14013 558.54 -2.14013 586.36 -2.14013C614.18 -2.14013 642 -2.14013 669.82 -2.14013C697.64 -2.14013 725.46 -2.14013 753.28 -2.14013C781.1 -2.14013 808.92 -2.14013 836.74 -2.14013C864.56 -2.14013 892.38 -2.14013 920.628 -2.14013C948.662 -2.14013 977.338 -2.14013 1005.37 -2.14013C1033.62 -2.14013 1061.44 -2.14013 1089.26 -2.14013C1117.08 -2.14013 1144.9 -2.14013 1172.72 -2.14013C1200.54 -2.14013 1228.36 -2.14013 1256.18 -2.14013C1284 -2.14013 1311.82 -2.14013 1339.64 -2.14013C1367.46 -2.14013 1395.28 -2.14013 1423.1 -2.14013C1450.92 -2.14013 1478.74 -2.14013 1506.56 -2.14013C1534.38 -2.14013 1562.2 -2.14013 1590.45 -2.14013C1618.48 -2.14013 1647.16 -2.14013 1675.19 -2.14013C1703.44 -2.14013 1731.26 -2.14013 1759.08 -2.14013C1786.9 -2.14013 1814.72 -2.14013 1842.54 -2.14013C1870.36 -2.14013 1898.18 -2.14013 1912.09 -2.14013H1926V404.46Z" fill="#5C5C5C"/>
<path d="M1926 344.54L1912.09 367.438C1898.18 390.122 1870.36 435.918 1842.54 448.758C1814.72 461.598 1786.9 441.482 1759.08 412.378C1731.26 383.06 1703.44 344.54 1675.19 353.1C1647.16 361.66 1618.48 417.3 1590.45 420.938C1562.2 424.362 1534.38 375.998 1506.56 348.178C1478.74 320.358 1450.92 313.082 1423.1 323.14C1395.28 333.198 1367.46 360.162 1339.64 374.072C1311.82 387.982 1284 388.838 1256.18 402.32C1228.36 415.802 1200.54 442.338 1172.72 440.84C1144.9 439.342 1117.08 410.238 1089.26 391.62C1061.44 373.002 1033.62 365.298 1005.37 352.458C977.338 339.618 948.662 321.642 920.628 337.05C892.38 352.458 864.56 400.822 836.74 409.168C808.92 417.3 781.1 385.2 753.28 388.838C725.46 392.262 697.64 431.638 669.82 434.42C642 437.202 614.18 403.818 586.36 389.908C558.54 375.998 530.72 381.562 502.9 371.718C475.08 361.66 447.26 335.98 419.44 346.68C391.62 357.38 363.8 404.46 335.552 413.448C307.518 422.222 278.842 393.118 250.808 399.752C222.56 406.6 194.74 449.4 166.92 447.902C139.1 446.618 111.28 400.822 83.4599 377.068C55.6399 353.1 27.8199 350.96 13.9099 349.89L-9.44138e-05 348.82V-2.14024H13.9099C27.8199 -2.14024 55.6399 -2.14024 83.4599 -2.14024C111.28 -2.14024 139.1 -2.14024 166.92 -2.14024C194.74 -2.14024 222.56 -2.14024 250.808 -2.14024C278.842 -2.14024 307.518 -2.14024 335.552 -2.14024C363.8 -2.14024 391.62 -2.14024 419.44 -2.14024C447.26 -2.14024 475.08 -2.14024 502.9 -2.14024C530.72 -2.14024 558.54 -2.14024 586.36 -2.14024C614.18 -2.14024 642 -2.14024 669.82 -2.14024C697.64 -2.14024 725.46 -2.14024 753.28 -2.14024C781.1 -2.14024 808.92 -2.14024 836.74 -2.14024C864.56 -2.14024 892.38 -2.14024 920.628 -2.14024C948.662 -2.14024 977.338 -2.14024 1005.37 -2.14024C1033.62 -2.14024 1061.44 -2.14024 1089.26 -2.14024C1117.08 -2.14024 1144.9 -2.14024 1172.72 -2.14024C1200.54 -2.14024 1228.36 -2.14024 1256.18 -2.14024C1284 -2.14024 1311.82 -2.14024 1339.64 -2.14024C1367.46 -2.14024 1395.28 -2.14024 1423.1 -2.14024C1450.92 -2.14024 1478.74 -2.14024 1506.56 -2.14024C1534.38 -2.14024 1562.2 -2.14024 1590.45 -2.14024C1618.48 -2.14024 1647.16 -2.14024 1675.19 -2.14024C1703.44 -2.14024 1731.26 -2.14024 1759.08 -2.14024C1786.9 -2.14024 1814.72 -2.14024 1842.54 -2.14024C1870.36 -2.14024 1898.18 -2.14024 1912.09 -2.14024H1926V344.54Z" fill="#6D6D6D"/>
<path d="M1926 378.78L1912.09 379.208C1898.18 379.422 1870.36 380.278 1842.54 391.62C1814.72 402.962 1786.9 425.218 1759.08 422.65C1731.26 420.082 1703.44 393.118 1675.19 379.208C1647.16 365.298 1618.48 364.442 1590.45 366.582C1562.2 368.722 1534.38 373.858 1506.56 373.43C1478.74 373.002 1450.92 367.438 1423.1 364.87C1395.28 362.302 1367.46 363.158 1339.64 359.092C1311.82 355.24 1284 346.68 1256.18 346.68C1228.36 346.68 1200.54 355.24 1172.72 359.52C1144.9 363.8 1117.08 363.8 1089.26 344.54C1061.44 325.28 1033.62 286.76 1005.37 276.488C977.338 266.002 948.662 283.978 920.628 298.958C892.38 313.938 864.56 325.922 836.74 341.33C808.92 356.738 781.1 375.142 753.28 380.278C725.46 385.2 697.64 376.64 669.82 362.302C642 348.178 614.18 328.062 586.36 318.86C558.54 309.658 530.72 310.942 502.9 321.642C475.08 332.342 447.26 352.458 419.44 353.1C391.62 353.742 363.8 335.338 335.552 338.548C307.518 341.758 278.842 366.582 250.808 384.558C222.56 402.32 194.74 413.02 166.92 396.97C139.1 380.92 111.28 338.12 83.4599 309.658C55.6399 280.982 27.8199 266.858 13.9099 259.582L-9.44138e-05 252.52V-2.14001H13.9099C27.8199 -2.14001 55.6399 -2.14001 83.4599 -2.14001C111.28 -2.14001 139.1 -2.14001 166.92 -2.14001C194.74 -2.14001 222.56 -2.14001 250.808 -2.14001C278.842 -2.14001 307.518 -2.14001 335.552 -2.14001C363.8 -2.14001 391.62 -2.14001 419.44 -2.14001C447.26 -2.14001 475.08 -2.14001 502.9 -2.14001C530.72 -2.14001 558.54 -2.14001 586.36 -2.14001C614.18 -2.14001 642 -2.14001 669.82 -2.14001C697.64 -2.14001 725.46 -2.14001 753.28 -2.14001C781.1 -2.14001 808.92 -2.14001 836.74 -2.14001C864.56 -2.14001 892.38 -2.14001 920.628 -2.14001C948.662 -2.14001 977.338 -2.14001 1005.37 -2.14001C1033.62 -2.14001 1061.44 -2.14001 1089.26 -2.14001C1117.08 -2.14001 1144.9 -2.14001 1172.72 -2.14001C1200.54 -2.14001 1228.36 -2.14001 1256.18 -2.14001C1284 -2.14001 1311.82 -2.14001 1339.64 -2.14001C1367.46 -2.14001 1395.28 -2.14001 1423.1 -2.14001C1450.92 -2.14001 1478.74 -2.14001 1506.56 -2.14001C1534.38 -2.14001 1562.2 -2.14001 1590.45 -2.14001C1618.48 -2.14001 1647.16 -2.14001 1675.19 -2.14001C1703.44 -2.14001 1731.26 -2.14001 1759.08 -2.14001C1786.9 -2.14001 1814.72 -2.14001 1842.54 -2.14001C1870.36 -2.14001 1898.18 -2.14001 1912.09 -2.14001H1926V378.78Z" fill="#7E7E7E"/>
<path d="M1926 241.82L1912.09 250.808C1898.18 259.582 1870.36 277.558 1842.54 285.262C1814.72 293.18 1786.9 291.04 1759.08 279.27C1731.26 267.5 1703.44 246.1 1675.19 257.87C1647.16 269.64 1618.48 314.58 1590.45 316.72C1562.2 318.86 1534.38 278.2 1506.56 265.788C1478.74 253.162 1450.92 268.998 1423.1 274.99C1395.28 280.982 1367.46 277.558 1339.64 272.85C1311.82 268.142 1284 262.578 1256.18 273.92C1228.36 285.262 1200.54 313.938 1172.72 328.49C1144.9 343.042 1117.08 343.898 1089.26 330.202C1061.44 316.72 1033.62 288.9 1005.37 279.27C977.338 269.64 948.662 278.2 920.628 286.76C892.38 295.32 864.56 303.88 836.74 300.242C808.92 296.818 781.1 280.982 753.28 271.78C725.46 262.578 697.64 259.582 669.82 274.562C642 289.542 614.18 322.498 586.36 341.758C558.54 361.018 530.72 366.582 502.9 353.528C475.08 340.26 447.26 308.16 419.44 291.04C391.62 273.92 363.8 271.78 335.552 287.188C307.518 302.382 278.842 335.338 250.808 329.56C222.56 323.782 194.74 279.698 166.92 272.85C139.1 266.002 111.28 296.818 83.4599 301.312C55.6399 306.02 27.8199 284.62 13.9099 273.92L-9.44138e-05 263.22V-2.13991H13.9099C27.8199 -2.13991 55.6399 -2.13991 83.4599 -2.13991C111.28 -2.13991 139.1 -2.13991 166.92 -2.13991C194.74 -2.13991 222.56 -2.13991 250.808 -2.13991C278.842 -2.13991 307.518 -2.13991 335.552 -2.13991C363.8 -2.13991 391.62 -2.13991 419.44 -2.13991C447.26 -2.13991 475.08 -2.13991 502.9 -2.13991C530.72 -2.13991 558.54 -2.13991 586.36 -2.13991C614.18 -2.13991 642 -2.13991 669.82 -2.13991C697.64 -2.13991 725.46 -2.13991 753.28 -2.13991C781.1 -2.13991 808.92 -2.13991 836.74 -2.13991C864.56 -2.13991 892.38 -2.13991 920.628 -2.13991C948.662 -2.13991 977.338 -2.13991 1005.37 -2.13991C1033.62 -2.13991 1061.44 -2.13991 1089.26 -2.13991C1117.08 -2.13991 1144.9 -2.13991 1172.72 -2.13991C1200.54 -2.13991 1228.36 -2.13991 1256.18 -2.13991C1284 -2.13991 1311.82 -2.13991 1339.64 -2.13991C1367.46 -2.13991 1395.28 -2.13991 1423.1 -2.13991C1450.92 -2.13991 1478.74 -2.13991 1506.56 -2.13991C1534.38 -2.13991 1562.2 -2.13991 1590.45 -2.13991C1618.48 -2.13991 1647.16 -2.13991 1675.19 -2.13991C1703.44 -2.13991 1731.26 -2.13991 1759.08 -2.13991C1786.9 -2.13991 1814.72 -2.13991 1842.54 -2.13991C1870.36 -2.13991 1898.18 -2.13991 1912.09 -2.13991H1926V241.82Z" fill="#8F8F8F"/>
<path d="M1926 239.68L1912.09 238.61C1898.18 237.54 1870.36 235.4 1842.54 232.832C1814.72 230.478 1786.9 227.482 1759.08 242.462C1731.26 257.442 1703.44 290.398 1675.19 292.752C1647.16 295.32 1618.48 267.5 1590.45 246.528C1562.2 225.342 1534.38 211.218 1506.56 200.732C1478.74 190.46 1450.92 184.04 1423.1 199.662C1395.28 215.498 1367.46 253.162 1339.64 273.92C1311.82 294.678 1284 298.102 1256.18 302.168C1228.36 306.02 1200.54 310.3 1172.72 308.16C1144.9 306.02 1117.08 297.46 1089.26 284.62C1061.44 271.78 1033.62 254.66 1005.37 236.898C977.338 218.922 948.662 200.518 920.628 208.008C892.38 215.498 864.56 248.882 836.74 258.94C808.92 268.998 781.1 255.302 753.28 249.738C725.46 243.96 697.64 246.1 669.82 245.672C642 245.458 614.18 242.462 586.36 233.26C558.54 224.058 530.72 208.222 502.9 206.51C475.08 204.798 447.26 216.782 419.44 231.762C391.62 246.742 363.8 264.718 335.552 261.508C307.518 258.298 278.842 233.902 250.808 229.408C222.56 224.7 194.74 239.68 166.92 248.882C139.1 258.298 111.28 261.722 83.4599 257.228C55.6399 252.52 27.8199 239.68 13.9099 233.26L-9.44138e-05 226.84V-2.13995H13.9099C27.8199 -2.13995 55.6399 -2.13995 83.4599 -2.13995C111.28 -2.13995 139.1 -2.13995 166.92 -2.13995C194.74 -2.13995 222.56 -2.13995 250.808 -2.13995C278.842 -2.13995 307.518 -2.13995 335.552 -2.13995C363.8 -2.13995 391.62 -2.13995 419.44 -2.13995C447.26 -2.13995 475.08 -2.13995 502.9 -2.13995C530.72 -2.13995 558.54 -2.13995 586.36 -2.13995C614.18 -2.13995 642 -2.13995 669.82 -2.13995C697.64 -2.13995 725.46 -2.13995 753.28 -2.13995C781.1 -2.13995 808.92 -2.13995 836.74 -2.13995C864.56 -2.13995 892.38 -2.13995 920.628 -2.13995C948.662 -2.13995 977.338 -2.13995 1005.37 -2.13995C1033.62 -2.13995 1061.44 -2.13995 1089.26 -2.13995C1117.08 -2.13995 1144.9 -2.13995 1172.72 -2.13995C1200.54 -2.13995 1228.36 -2.13995 1256.18 -2.13995C1284 -2.13995 1311.82 -2.13995 1339.64 -2.13995C1367.46 -2.13995 1395.28 -2.13995 1423.1 -2.13995C1450.92 -2.13995 1478.74 -2.13995 1506.56 -2.13995C1534.38 -2.13995 1562.2 -2.13995 1590.45 -2.13995C1618.48 -2.13995 1647.16 -2.13995 1675.19 -2.13995C1703.44 -2.13995 1731.26 -2.13995 1759.08 -2.13995C1786.9 -2.13995 1814.72 -2.13995 1842.54 -2.13995C1870.36 -2.13995 1898.18 -2.13995 1912.09 -2.13995H1926V239.68Z" fill="#A1A1A1"/>
<path d="M1926 199.02L1912.09 194.74C1898.18 190.46 1870.36 181.9 1842.54 192.172C1814.72 202.658 1786.9 231.762 1759.08 227.482C1731.26 223.202 1703.44 185.538 1675.19 184.468C1647.16 183.398 1618.48 218.922 1590.45 225.77C1562.2 232.618 1534.38 210.362 1506.56 215.712C1478.74 221.062 1450.92 254.018 1423.1 252.52C1395.28 251.022 1367.46 215.498 1339.64 200.518C1311.82 185.538 1284 191.102 1256.18 197.308C1228.36 203.3 1200.54 209.72 1172.72 225.77C1144.9 241.82 1117.08 267.5 1089.26 259.368C1061.44 251.022 1033.62 209.078 1005.37 193.67C977.338 178.262 948.662 189.818 920.628 198.378C892.38 206.938 864.56 212.502 836.74 226.412C808.92 240.322 781.1 262.578 753.28 271.78C725.46 280.982 697.64 277.558 669.82 264.932C642 252.52 614.18 231.12 586.36 225.128C558.54 218.922 530.72 228.338 502.9 228.552C475.08 228.98 447.26 220.42 419.44 224.7C391.62 228.98 363.8 246.1 335.552 252.948C307.518 259.582 278.842 256.158 250.808 254.018C222.56 251.878 194.74 251.022 166.92 245.03C139.1 239.038 111.28 227.482 83.4599 231.12C55.6399 234.758 27.8199 253.162 13.9099 262.578L-9.44138e-05 271.78V-2.13999H13.9099C27.8199 -2.13999 55.6399 -2.13999 83.4599 -2.13999C111.28 -2.13999 139.1 -2.13999 166.92 -2.13999C194.74 -2.13999 222.56 -2.13999 250.808 -2.13999C278.842 -2.13999 307.518 -2.13999 335.552 -2.13999C363.8 -2.13999 391.62 -2.13999 419.44 -2.13999C447.26 -2.13999 475.08 -2.13999 502.9 -2.13999C530.72 -2.13999 558.54 -2.13999 586.36 -2.13999C614.18 -2.13999 642 -2.13999 669.82 -2.13999C697.64 -2.13999 725.46 -2.13999 753.28 -2.13999C781.1 -2.13999 808.92 -2.13999 836.74 -2.13999C864.56 -2.13999 892.38 -2.13999 920.628 -2.13999C948.662 -2.13999 977.338 -2.13999 1005.37 -2.13999C1033.62 -2.13999 1061.44 -2.13999 1089.26 -2.13999C1117.08 -2.13999 1144.9 -2.13999 1172.72 -2.13999C1200.54 -2.13999 1228.36 -2.13999 1256.18 -2.13999C1284 -2.13999 1311.82 -2.13999 1339.64 -2.13999C1367.46 -2.13999 1395.28 -2.13999 1423.1 -2.13999C1450.92 -2.13999 1478.74 -2.13999 1506.56 -2.13999C1534.38 -2.13999 1562.2 -2.13999 1590.45 -2.13999C1618.48 -2.13999 1647.16 -2.13999 1675.19 -2.13999C1703.44 -2.13999 1731.26 -2.13999 1759.08 -2.13999C1786.9 -2.13999 1814.72 -2.13999 1842.54 -2.13999C1870.36 -2.13999 1898.18 -2.13999 1912.09 -2.13999H1926V199.02Z" fill="#B3B3B3"/>
<path d="M1926 128.4L1912.09 146.162C1898.18 164.138 1870.36 199.662 1842.54 215.712C1814.72 231.762 1786.9 228.338 1759.08 214.642C1731.26 201.16 1703.44 177.62 1675.19 167.348C1647.16 156.862 1618.48 159.858 1590.45 167.99C1562.2 176.122 1534.38 189.818 1506.56 199.662C1478.74 209.72 1450.92 216.14 1423.1 207.152C1395.28 198.378 1367.46 173.982 1339.64 157.29C1311.82 140.598 1284 131.182 1256.18 124.762C1228.36 118.342 1200.54 114.918 1172.72 124.12C1144.9 133.322 1117.08 155.578 1089.26 160.928C1061.44 166.278 1033.62 154.722 1005.37 153.01C977.338 151.298 948.662 159.002 920.628 171.842C892.38 184.682 864.56 202.658 836.74 208.222C808.92 214 781.1 207.58 753.28 201.16C725.46 194.74 697.64 188.32 669.82 188.962C642 189.818 614.18 197.522 586.36 207.152C558.54 216.782 530.72 228.338 502.9 221.49C475.08 214.642 447.26 189.818 419.44 182.328C391.62 174.838 363.8 184.682 335.552 176.122C307.518 167.562 278.842 140.598 250.808 127.758C222.56 114.918 194.74 116.202 166.92 117.272C139.1 118.342 111.28 119.198 83.4599 135.462C55.6399 151.94 27.8199 184.04 13.9099 200.09L-9.44138e-05 216.14V-2.13989H13.9099C27.8199 -2.13989 55.6399 -2.13989 83.4599 -2.13989C111.28 -2.13989 139.1 -2.13989 166.92 -2.13989C194.74 -2.13989 222.56 -2.13989 250.808 -2.13989C278.842 -2.13989 307.518 -2.13989 335.552 -2.13989C363.8 -2.13989 391.62 -2.13989 419.44 -2.13989C447.26 -2.13989 475.08 -2.13989 502.9 -2.13989C530.72 -2.13989 558.54 -2.13989 586.36 -2.13989C614.18 -2.13989 642 -2.13989 669.82 -2.13989C697.64 -2.13989 725.46 -2.13989 753.28 -2.13989C781.1 -2.13989 808.92 -2.13989 836.74 -2.13989C864.56 -2.13989 892.38 -2.13989 920.628 -2.13989C948.662 -2.13989 977.338 -2.13989 1005.37 -2.13989C1033.62 -2.13989 1061.44 -2.13989 1089.26 -2.13989C1117.08 -2.13989 1144.9 -2.13989 1172.72 -2.13989C1200.54 -2.13989 1228.36 -2.13989 1256.18 -2.13989C1284 -2.13989 1311.82 -2.13989 1339.64 -2.13989C1367.46 -2.13989 1395.28 -2.13989 1423.1 -2.13989C1450.92 -2.13989 1478.74 -2.13989 1506.56 -2.13989C1534.38 -2.13989 1562.2 -2.13989 1590.45 -2.13989C1618.48 -2.13989 1647.16 -2.13989 1675.19 -2.13989C1703.44 -2.13989 1731.26 -2.13989 1759.08 -2.13989C1786.9 -2.13989 1814.72 -2.13989 1842.54 -2.13989C1870.36 -2.13989 1898.18 -2.13989 1912.09 -2.13989H1926V128.4Z" fill="#C6C6C6"/>
<path d="M1926 70.6203L1912.09 89.4523C1898.18 108.498 1870.36 146.162 1842.54 154.722C1814.72 163.282 1786.9 142.738 1759.08 134.178C1731.26 125.618 1703.44 129.042 1675.19 132.68C1647.16 136.318 1618.48 139.742 1590.45 136.532C1562.2 133.322 1534.38 123.478 1506.56 130.968C1478.74 138.458 1450.92 163.282 1423.1 162.64C1395.28 161.998 1367.46 135.462 1339.64 121.552C1311.82 107.642 1284 106.358 1256.18 100.58C1228.36 94.8023 1200.54 84.9583 1172.72 82.3903C1144.9 79.8223 1117.08 84.9583 1089.26 92.4483C1061.44 99.9384 1033.62 109.782 1005.37 117.058C977.338 124.12 948.662 128.4 920.628 136.96C892.38 145.52 864.56 158.36 836.74 169.06C808.92 179.76 781.1 188.32 753.28 187.25C725.46 186.18 697.64 175.48 669.82 171.2C642 166.92 614.18 169.06 586.36 169.702C558.54 170.558 530.72 169.702 502.9 159.43C475.08 149.158 447.26 129.042 419.44 124.12C391.62 119.198 363.8 129.042 335.552 142.952C307.518 156.862 278.842 174.838 250.808 177.62C222.56 180.402 194.74 168.418 166.92 153.652C139.1 139.1 111.28 121.98 83.4599 120.91C55.6399 119.84 27.8199 134.82 13.9099 142.31L-9.44138e-05 149.8V-2.13969H13.9099C27.8199 -2.13969 55.6399 -2.13969 83.4599 -2.13969C111.28 -2.13969 139.1 -2.13969 166.92 -2.13969C194.74 -2.13969 222.56 -2.13969 250.808 -2.13969C278.842 -2.13969 307.518 -2.13969 335.552 -2.13969C363.8 -2.13969 391.62 -2.13969 419.44 -2.13969C447.26 -2.13969 475.08 -2.13969 502.9 -2.13969C530.72 -2.13969 558.54 -2.13969 586.36 -2.13969C614.18 -2.13969 642 -2.13969 669.82 -2.13969C697.64 -2.13969 725.46 -2.13969 753.28 -2.13969C781.1 -2.13969 808.92 -2.13969 836.74 -2.13969C864.56 -2.13969 892.38 -2.13969 920.628 -2.13969C948.662 -2.13969 977.338 -2.13969 1005.37 -2.13969C1033.62 -2.13969 1061.44 -2.13969 1089.26 -2.13969C1117.08 -2.13969 1144.9 -2.13969 1172.72 -2.13969C1200.54 -2.13969 1228.36 -2.13969 1256.18 -2.13969C1284 -2.13969 1311.82 -2.13969 1339.64 -2.13969C1367.46 -2.13969 1395.28 -2.13969 1423.1 -2.13969C1450.92 -2.13969 1478.74 -2.13969 1506.56 -2.13969C1534.38 -2.13969 1562.2 -2.13969 1590.45 -2.13969C1618.48 -2.13969 1647.16 -2.13969 1675.19 -2.13969C1703.44 -2.13969 1731.26 -2.13969 1759.08 -2.13969C1786.9 -2.13969 1814.72 -2.13969 1842.54 -2.13969C1870.36 -2.13969 1898.18 -2.13969 1912.09 -2.13969H1926V70.6203Z" fill="#D8D8D8"/>
<path d="M1926 143.38L1912.09 140.812C1898.18 138.458 1870.36 133.322 1842.54 128.4C1814.72 123.478 1786.9 118.342 1759.08 119.412C1731.26 120.482 1703.44 127.758 1675.19 118.342C1647.16 109.14 1618.48 83.4599 1590.45 72.3319C1562.2 61.4179 1534.38 64.8419 1506.56 62.4879C1478.74 59.9199 1450.92 51.3599 1423.1 53.9279C1395.28 56.2819 1367.46 69.9779 1339.64 73.1879C1311.82 76.3979 1284 69.1219 1256.18 62.4879C1228.36 55.6399 1200.54 49.2199 1172.72 45.3679C1144.9 41.3019 1117.08 40.0179 1089.26 54.5699C1061.44 69.1219 1033.62 99.9379 1005.37 106.358C977.338 112.778 948.662 94.8019 920.628 84.9579C892.38 74.8999 864.56 72.7599 836.74 74.4719C808.92 76.3979 781.1 81.9619 753.28 79.1799C725.46 76.3979 697.64 64.8419 669.82 68.9079C642 72.7599 614.18 92.0199 586.36 92.4479C558.54 92.6619 530.72 74.2579 502.9 62.7019C475.08 51.3599 447.26 47.0799 419.44 50.9319C391.62 54.9979 363.8 66.9819 335.552 71.0479C307.518 74.8999 278.842 70.6199 250.808 77.4679C222.56 84.1019 194.74 102.078 166.92 96.9419C139.1 92.0199 111.28 64.1999 83.4599 52.8579C55.6399 41.3019 27.8199 46.4379 13.9099 48.7919L-9.44138e-05 51.3599V-2.14012H13.9099C27.8199 -2.14012 55.6399 -2.14012 83.4599 -2.14012C111.28 -2.14012 139.1 -2.14012 166.92 -2.14012C194.74 -2.14012 222.56 -2.14012 250.808 -2.14012C278.842 -2.14012 307.518 -2.14012 335.552 -2.14012C363.8 -2.14012 391.62 -2.14012 419.44 -2.14012C447.26 -2.14012 475.08 -2.14012 502.9 -2.14012C530.72 -2.14012 558.54 -2.14012 586.36 -2.14012C614.18 -2.14012 642 -2.14012 669.82 -2.14012C697.64 -2.14012 725.46 -2.14012 753.28 -2.14012C781.1 -2.14012 808.92 -2.14012 836.74 -2.14012C864.56 -2.14012 892.38 -2.14012 920.628 -2.14012C948.662 -2.14012 977.338 -2.14012 1005.37 -2.14012C1033.62 -2.14012 1061.44 -2.14012 1089.26 -2.14012C1117.08 -2.14012 1144.9 -2.14012 1172.72 -2.14012C1200.54 -2.14012 1228.36 -2.14012 1256.18 -2.14012C1284 -2.14012 1311.82 -2.14012 1339.64 -2.14012C1367.46 -2.14012 1395.28 -2.14012 1423.1 -2.14012C1450.92 -2.14012 1478.74 -2.14012 1506.56 -2.14012C1534.38 -2.14012 1562.2 -2.14012 1590.45 -2.14012C1618.48 -2.14012 1647.16 -2.14012 1675.19 -2.14012C1703.44 -2.14012 1731.26 -2.14012 1759.08 -2.14012C1786.9 -2.14012 1814.72 -2.14012 1842.54 -2.14012C1870.36 -2.14012 1898.18 -2.14012 1912.09 -2.14012H1926V143.38Z" fill="#ECECEC"/>
<path d="M1926 29.9602L1912.09 37.4502C1898.18 44.9402 1870.36 59.9202 1842.54 63.1302C1814.72 66.3402 1786.9 57.7802 1759.08 46.6522C1731.26 35.7382 1703.44 22.0422 1675.19 18.6182C1647.16 14.9802 1618.48 21.4002 1590.45 20.3302C1562.2 19.2602 1534.38 10.7002 1506.56 11.7702C1478.74 12.8402 1450.92 23.5402 1423.1 25.0382C1395.28 26.3222 1367.46 18.6182 1339.64 21.8282C1311.82 25.0382 1284 39.1622 1256.18 43.2282C1228.36 47.0802 1200.54 40.6602 1172.72 33.1702C1144.9 25.6802 1117.08 17.1202 1089.26 17.5482C1061.44 17.7622 1033.62 27.1782 1005.37 34.8822C977.338 42.8002 948.662 49.2202 920.628 50.9322C892.38 52.8582 864.56 49.8622 836.74 46.6522C808.92 43.4422 781.1 40.0182 753.28 38.0922C725.46 36.3802 697.64 36.3802 669.82 36.8082C642 37.0222 614.18 37.8782 586.36 48.1502C558.54 58.4222 530.72 78.5382 502.9 88.1682C475.08 97.7982 447.26 96.9422 419.44 84.9582C391.62 72.7602 363.8 49.2202 335.552 49.8622C307.518 50.7182 278.842 75.5422 250.808 85.1722C222.56 94.8022 194.74 89.2382 166.92 86.0282C139.1 82.8182 111.28 81.9622 83.4599 74.4722C55.6399 66.9822 27.8199 52.8582 13.9099 45.5822L-9.44138e-05 38.5202V-2.13981L13.9099 -2.13981C27.8199 -2.13981 55.6399 -2.13981 83.4599 -2.13981C111.28 -2.13981 139.1 -2.13981 166.92 -2.13981C194.74 -2.13981 222.56 -2.13981 250.808 -2.13981C278.842 -2.13981 307.518 -2.13981 335.552 -2.13981C363.8 -2.13981 391.62 -2.13981 419.44 -2.13981C447.26 -2.13981 475.08 -2.13981 502.9 -2.13981C530.72 -2.13981 558.54 -2.13981 586.36 -2.13981C614.18 -2.13981 642 -2.13981 669.82 -2.13981C697.64 -2.13981 725.46 -2.13981 753.28 -2.13981C781.1 -2.13981 808.92 -2.13981 836.74 -2.13981C864.56 -2.13981 892.38 -2.13981 920.628 -2.13981C948.662 -2.13981 977.338 -2.13981 1005.37 -2.13981C1033.62 -2.13981 1061.44 -2.13981 1089.26 -2.13981C1117.08 -2.13981 1144.9 -2.13981 1172.72 -2.13981C1200.54 -2.13981 1228.36 -2.13981 1256.18 -2.13981C1284 -2.13981 1311.82 -2.13981 1339.64 -2.13981C1367.46 -2.13981 1395.28 -2.13981 1423.1 -2.13981C1450.92 -2.13981 1478.74 -2.13981 1506.56 -2.13981C1534.38 -2.13981 1562.2 -2.13981 1590.45 -2.13981C1618.48 -2.13981 1647.16 -2.13981 1675.19 -2.13981C1703.44 -2.13981 1731.26 -2.13981 1759.08 -2.13981C1786.9 -2.13981 1814.72 -2.13981 1842.54 -2.13981C1870.36 -2.13981 1898.18 -2.13981 1912.09 -2.13981H1926V29.9602Z" fill="white"/>
</g>
<defs>
<clipPath id="clip0_102_553">
<rect width="1926" height="1284" fill="white" transform="translate(1926 1284) rotate(-180)"/>
</clipPath>
</defs>
</svg>
